<?xml version="1.0" encoding="utf-8"?>
<!-- Generator: Adobe Illustrator 22.0.1, SVG Export Plug-In . SVG Version: 6.00 Build 0)  -->
<svg version="1.1" xmlns="http://www.w3.org/2000/svg" xmlns:xlink="http://www.w3.org/1999/xlink" x="0px" y="0px"
	 viewBox="0 0 657 657" style="enable-background:new 0 0 657 657;" xml:space="preserve">
<style type="text/css">
	.st0{enable-background:new    ;}
	.st1{fill-rule:evenodd;clip-rule:evenodd;fill:#DCB8A8;}
	.st2{fill-rule:evenodd;clip-rule:evenodd;}
	.st3{fill-rule:evenodd;clip-rule:evenodd;fill:#F6DBCF;}
	.st4{fill-rule:evenodd;clip-rule:evenodd;fill:#40DF6D;}
</style>
<g id="Shape_10_1_" class="st0">
	<g id="Shape_10">
		<g>
			<path class="st1" d="M221.7,338.9c-1.5-10.6-7.1-12.7-7.1-12.7c-0.8-1.4-1-3.1-0.5-4.6l2-6.9c1-3.3,0.3-6.9-1.7-9.7l-5.6-7.7
				c-1.1-1.5-1.4-3.4-0.9-5.2l1.9-6.7c0.9-3.2,0.4-6.7-1.5-9.4l-3.9-5.9c-1-1.4-1.3-3.2-0.9-4.9c0,0,4.7-14,1.5-21.2
				c-3.2-7.2-12.6-11.5-12.6-11.5l-55,24.7c-9.1,4.1-15.9,11.9-18.7,21.4L80,396.6l75.2,30.1c7.5,3,16.1,0.1,20.2-6.8l22.5-43.2
				c0.6-1,1.9-1.4,2.9-0.9c0,0,12.4,5.5,15.2-3.9C216,372,223.2,349.5,221.7,338.9z"/>
		</g>
	</g>
</g>
<g id="Shape_10_copy_1_" class="st0">
	<g id="Shape_10_copy_3_">
		<g>
			<path class="st1" d="M538.2,279c-2.8-9.5-9.6-17.3-18.7-21.4l-55-24.7c0,0-9.4,4.3-12.6,11.5c-3.2,7.2,1.5,21.2,1.5,21.2
				c0.4,1.7,0.1,3.4-0.9,4.9l-3.9,5.9c-1.9,2.8-2.4,6.2-1.5,9.4l1.9,6.7c0.5,1.8,0.2,3.7-0.9,5.2l-5.6,7.7c-2,2.8-2.7,6.4-1.7,9.7
				l2,6.8c0.4,1.6,0.3,3.2-0.5,4.6c0,0-5.6,2.1-7.1,12.7c-1.5,10.5,5.7,33.1,5.7,33.1c2.8,9.4,15.2,3.9,15.2,3.9
				c1.1-0.5,2.3-0.1,2.9,0.9l22.5,43.2c4.1,6.9,12.7,9.7,20.2,6.7l75.2-30.1L538.2,279z"/>
		</g>
	</g>
</g>
<g id="Shape_6_1_" class="st0">
	<g id="Shape_6">
		<g>
			<path class="st2" d="M498,241.4c-0.9-2.1-1.9-4.2-2.9-6.2c-9.4-19.4-22.1-37-37.4-51.8C424.9,151.6,380.3,132,331,132
				c-49.3,0-93.9,19.6-126.7,51.4c-15.3,14.9-28,32.4-37.4,51.8c-1,2.1-1.9,4.1-2.9,6.2c-9.7,22.2-15,46.8-15,72.6
				c0,100.5,81.5,182,182,182s182-81.5,182-182C513,288.2,507.6,263.7,498,241.4z M190.5,249c2.2-4.8,4.6-9.4,7.3-13.9
				c6.6-11.1,14.5-21.3,23.8-30.6c0.7-0.7,1.5-1.5,2.2-2.2c13.7-13.2,29.5-23.6,47-31c19.1-8.1,39.3-12.1,60.2-12.1
				c20.9,0,41.2,4.1,60.2,12.1c17.5,7.4,33.3,17.8,47,31c0.7,0.7,1.5,1.4,2.2,2.2c9.2,9.2,17.2,19.5,23.8,30.6
				c2.7,4.5,5.1,9.1,7.3,13.8c0.2,0.7,0.4,1.5,0.7,2.3c0.2,0.7,0.3,1.4,0.4,2.1c-0.9,4.2-3.4,7-7.7,8.7c-6.5,2.7-13.2,2.8-20.1,2
				c-9.6-1.1-18.7-4.1-28.2-5.8c-18.7-3.3-37.5-5.4-56.6-6.2c-17.9-0.7-35.7-0.9-53.6,0.2c-1.6,0.1-3.2,0.2-4.9,0.3
				c-18.6,0.7-37,2.8-55.4,6.1c-9.4,1.7-18.5,4.6-28,5.7c-6.9,0.8-13.6,0.7-20-1.9c-5.1-2.1-7.6-5.6-8-11.2c0,0,0,0,0-0.1
				C190.1,250.6,190.3,249.7,190.5,249z M222.5,381.4c-2.8,2.2-5.7,4.2-9,5.5c-5.2,1.6-10.4,1-15.3-2.4c-4.2-2.8-7.3-6.7-9.6-11.3
				c-1.4-2.8-2.7-5.6-3.8-8.4c-5.1-14.6-7.9-29.9-8.5-45.6c0.9-3.1,2.5-5.9,5.2-8.4c3.2-2.9,7.1-4.2,11.3-4.7
				c8.5-1.1,17.1-0.6,25.3,1.5c4.3,1.1,8.1,3,11.2,5.7c1,1.1,1.9,2.3,2.8,3.6c3.6,5.2,6.3,10.8,7.3,17.2c0.9,5.7,1.5,11.3,1,17
				c-0.9,3.6-2.3,7.7-3.9,11.4C233.2,370.7,228.9,376.4,222.5,381.4z M425.3,432.4c-2.5,3.5-6.1,8.6-21.2,18
				c-4.2,2.2-8.5,4.3-12.8,6.1c-19.1,8.1-39.3,12.1-60.2,12.1c-20.9,0-41.2-4.1-60.2-12.1c-9.4-4-18.2-8.8-26.6-14.4
				c-4.7-4-6.6-6.7-8.2-8.9c-3.4-4.6-4-8.7-0.1-13.9c7.4-9.8,16.9-17.1,29.2-19.8c5.4-1.2,10.9-0.2,16.4,0.3
				c11.1,0.9,22.1,2.9,33.2,3.7c19.9,1.4,39.5-0.2,59.1-3.6c1-0.2,1.9-0.3,2.9-0.5c1.1-0.1,2.3-0.2,3.4-0.3
				c5.4-0.5,10.9-1.5,16.3-0.3c12.2,2.7,21.6,9.9,29,19.7C429.2,423.7,428.6,427.8,425.3,432.4z M473.6,374.2
				c-0.1,0.1-0.1,0.3-0.2,0.4c-1,1.7-2,3.3-3.2,4.8c-4.6,5.9-10.4,9.2-18.1,8.1c-5.1-0.7-9.4-3.5-13.4-6.7c-6.3-5-10.6-10.7-14-18.7
				c-0.4-1.1-0.9-2.2-1.3-3.3c-2.1-8.2-1.5-16.3-0.1-24.6c1-6.5,3.7-12.1,7.3-17.3c1.9-2.9,4.2-5.3,6.8-7.2c1.7-0.9,3.6-1.6,5.6-2.1
				c8.2-2,16.7-2.5,25.2-1.5c4.1,0.5,8,1.8,11.2,4.6c4.2,3.7,5.8,8.4,6.1,13.5C484.2,341.6,480.3,358.3,473.6,374.2z"/>
		</g>
	</g>
</g>
<g id="Shape_8_1_" class="st0">
	<g id="Shape_8_3_">
		<g>
			<path class="st3" d="M196.4,224.1c-2.4-3.7-7.7-2.6-10.4-1.1c-2.8,1.6-27.5,44.9-47,61c-13.3,11-34.4,77.4-57.3,108.8
				c-1.9,2.7-0.5,6.5,2.5,7.9l57.2,32.3c4.1,1.9,8.9,0.4,11.1-3.5c0,0,46-73,23.9-113.2l-2.8-8.5c-1.1-3.3-0.8-7,1-10l24.1-45
				c0.6-1.1,1.1-2.2,1.4-3.3C202.5,240.9,201.4,231.6,196.4,224.1z"/>
		</g>
	</g>
</g>
<g id="Shape_11_1_" class="st0">
	<g id="Shape_11">
		<g>
			<path class="st4" d="M167.1,423.3l-83.2-43.5c-8.3-4.3-18.5-1.5-23.4,6.5L2,481.8L126.4,544l48.4-97
				C179,438.3,175.6,427.8,167.1,423.3z"/>
		</g>
	</g>
</g>
<g id="Shape_8_copy_1_" class="st0">
	<g id="Shape_8_copy_3_">
		<g>
			<path class="st3" d="M575.3,392.9c-22.9-31.3-44-97.7-57.3-108.6c-19.5-16.1-44.2-59.4-47-60.9c-2.7-1.5-8-2.6-10.4,1.1
				c-4.9,7.5-6.1,16.8-3.6,25.4c0.3,1.2,0.8,2.3,1.4,3.3l24.2,44.9c1.7,3,2.1,6.7,1,10l-2.8,8.5c-22.1,40.1,23.9,113,23.9,113
				c2.2,3.9,7.1,5.4,11.1,3.5l57.2-32.2C575.8,399.4,577.2,395.6,575.3,392.9z"/>
		</g>
	</g>
</g>
<g id="Shape_11_copy_1_" class="st0">
	<g id="Shape_11_copy">
		<g>
			<path class="st4" d="M596.5,386.4c-4.9-8-15.1-10.8-23.4-6.4l-83.2,43.5c-8.6,4.5-12,15-7.7,23.6l48.4,96.9L655,481.9
				L596.5,386.4z"/>
		</g>
	</g>
</g>
</svg>
