<?xml version="1.0" encoding="utf-8"?>
<!-- Generator: Adobe Illustrator 22.0.1, SVG Export Plug-In . SVG Version: 6.00 Build 0)  -->
<svg version="1.1" id="Layer_1" xmlns="http://www.w3.org/2000/svg" xmlns:xlink="http://www.w3.org/1999/xlink" x="0px" y="0px"
	 viewBox="0 0 566 566" style="enable-background:new 0 0 566 566;" xml:space="preserve">
<style type="text/css">
	.st0{fill-rule:evenodd;clip-rule:evenodd;fill:#F6DBCF;}
	.st1{fill-rule:evenodd;clip-rule:evenodd;}
	.st2{fill-rule:evenodd;clip-rule:evenodd;fill:#FFFFFF;}
	
		.st3{fill-rule:evenodd;clip-rule:evenodd;fill:none;stroke:#40DF6D;stroke-width:4;stroke-linecap:round;stroke-linejoin:round;stroke-miterlimit:10;}
	.st4{fill:#40DF6D;}
	.st5{fill:#FF623D;}
</style>
<g>
	<path class="st0" d="M274.3,516h-94.7c-28.5,0-51.6-23.1-51.6-51.5v-91.1c0-2.9,0.7-5.7,2-8.3l24.1-47.3c0.6-1.2,0.9-2.5,0.9-3.8
		v-51.3c0-7.6,6.2-13.7,13.8-13.7l0,0c17,2.2,36,13,37.8,37l0.5,1l161.2-70l32.7-6c0,0,25.9-6.7,32,19c5.7,24.2-19,32-19,32l-35.7,6
		l24.5,12.5c10.9,5.6,16.7,17.8,14,29.8l-6.5,28.7l0,0c6.1,4.9,9,12.8,7.3,20.5l-9.3,43.5l-4,2l1.7,2.2c1.5,1.8,2.3,4.1,2.3,6.4V444
		c0,0,0.3,16.6-18,19c-16,2.1-20-10-20-10l0,0c-5.3,6.6-11.5,12.5-18.5,17.4l-54.1,38.2C290.9,513.4,282.7,516,274.3,516z"/>
	<g>
		<g>
			<path class="st1" d="M372,127.8L372,127.8l0-49.6c0-15.6-12.7-28.3-28.3-28.3H221.3C205.7,50,193,62.7,193,78.3v18.6h-1v14.4h1
				v16.8c-0.6,0.3-1,1-1,1.7v24.2c0,0.7,0.4,1.4,1,1.7v5.9c-0.6,0.3-1,1-1,1.7v24.3c0,0.7,0.4,1.4,1,1.7v201.3
				c0,15.6,12.7,28.3,28.3,28.3h51.6c0.1-0.3,0.4-0.6,0.7-0.6h18.8c0.4,0,0.6,0.3,0.7,0.6h50.5c15.6,0,28.3-12.7,28.3-28.3V156.1h0
				c1.1,0,2-0.9,2-2v-24.2C374,128.7,373.1,127.8,372,127.8z"/>
		</g>
	</g>
	<path class="st2" d="M212,76h142c4.4,0,8,3.6,8,8v302c0,4.4-3.6,8-8,8H212c-4.4,0-8-3.6-8-8V84C204,79.6,207.6,76,212,76z"/>
	<path class="st3" d="M256,325h25V139h34"/>
	<ellipse class="st4" cx="332.5" cy="138" rx="10.5" ry="10.5"/>
	<ellipse class="st5" cx="236.5" cy="325" rx="10.5" ry="10.5"/>
</g>
</svg>
