<svg width="24" height="24" viewBox="0 0 24 24" fill="none" xmlns="http://www.w3.org/2000/svg">
<path d="M4.98292 7.197C6.19132 7.197 7.17092 6.2174 7.17092 5.009C7.17092 3.8006 6.19132 2.821 4.98292 2.821C3.77452 2.821 2.79492 3.8006 2.79492 5.009C2.79492 6.2174 3.77452 7.197 4.98292 7.197Z" fill="#2F313F"/>
<path d="M9.23673 8.85501V20.994H13.0057V14.991C13.0057 13.407 13.3037 11.873 15.2677 11.873C17.2047 11.873 17.2287 13.684 17.2287 15.091V20.995H20.9997V14.338C20.9997 11.068 20.2957 8.55502 16.4737 8.55502C14.6387 8.55502 13.4087 9.56202 12.9057 10.515H12.8547V8.85501H9.23673ZM3.09473 8.85501H6.86973V20.994H3.09473V8.85501Z" fill="#2F313F"/>
</svg>
