<svg width="36" height="36" viewBox="0 0 36 36" fill="none" xmlns="http://www.w3.org/2000/svg">
<path fill-rule="evenodd" clip-rule="evenodd" d="M30.6085 5.2315C28.9558 3.56805 26.9894 2.24911 24.8232 1.35111C22.657 0.453101 20.3342 -0.00611494 17.9893 6.14853e-05C8.15252 6.14853e-05 0.153967 8.00204 0.14969 17.8379C0.145732 20.9683 0.967117 24.0443 2.53104 26.756L0 36L9.45696 33.5194C12.0723 34.9437 15.0027 35.6901 17.9807 35.6904H17.9884C27.82 35.6904 35.8237 27.6875 35.8272 17.8516C35.8346 15.5075 35.3772 13.1853 34.4814 11.0191C33.5857 8.85287 32.2693 6.88576 30.6085 5.2315ZM17.9893 32.6777H17.9807C15.3253 32.6781 12.7186 31.9643 10.4338 30.6112L9.89235 30.2896L4.28027 31.7616L5.77888 26.2873L5.42561 25.7262C3.9429 23.3638 3.15802 20.6305 3.16145 17.8414C3.16145 9.66659 9.81622 3.01524 17.9953 3.01524C21.9279 3.01751 25.6985 4.58172 28.4779 7.36385C31.2573 10.146 32.8178 13.9182 32.8163 17.8508C32.8128 26.0264 26.1615 32.6777 17.9893 32.6777ZM26.1221 21.5733C25.6765 21.3501 23.485 20.2715 23.0762 20.1192C22.6673 19.967 22.3705 19.8968 22.0737 20.3425C21.7769 20.7881 20.9223 21.7966 20.6623 22.09C20.4023 22.3834 20.1422 22.4253 19.6966 22.202C19.2509 21.9788 17.8148 21.5083 16.1117 19.9892C14.7868 18.8079 13.8921 17.3478 13.6312 16.9013C13.3703 16.4548 13.6038 16.217 13.8271 15.9921C14.0272 15.7919 14.2727 15.4711 14.4951 15.2111C14.7175 14.9511 14.7928 14.7646 14.9407 14.4678C15.0887 14.171 15.0152 13.9101 14.904 13.6868C14.7928 13.4636 13.9015 11.2696 13.5294 10.3765C13.1676 9.50749 12.8006 9.62554 12.5269 9.61185C12.2703 9.59902 11.9692 9.5956 11.6715 9.5956C11.4455 9.60171 11.2233 9.65449 11.0187 9.75061C10.8141 9.84673 10.6315 9.98412 10.4826 10.1542C10.0745 10.5998 8.92321 11.6784 8.92321 13.8724C8.92321 16.0665 10.5202 18.1861 10.7426 18.4837C10.965 18.7814 13.8861 23.2832 18.3554 25.2138C19.1853 25.572 20.0336 25.8861 20.8967 26.1547C21.965 26.4968 22.9367 26.4455 23.704 26.3309C24.5594 26.2035 26.342 25.2531 26.7132 24.2122C27.0844 23.1712 27.0844 22.2782 26.9698 22.0917C26.8552 21.9052 26.5678 21.7966 26.1221 21.5733Z" fill="white"/>
</svg>
